<svg width="29" height="29" viewBox="0 0 29 29" fill="none" xmlns="http://www.w3.org/2000/svg">
<path d="M25.375 9.0625V25.375H9.0625V9.0625H25.375ZM25.375 7.25H9.0625C8.5818 7.25 8.12078 7.44096 7.78087 7.78087C7.44096 8.12078 7.25 8.5818 7.25 9.0625V25.375C7.25 25.8557 7.44096 26.3167 7.78087 26.6566C8.12078 26.9965 8.5818 27.1875 9.0625 27.1875H25.375C25.8557 27.1875 26.3167 26.9965 26.6566 26.6566C26.9965 26.3167 27.1875 25.8557 27.1875 25.375V9.0625C27.1875 8.5818 26.9965 8.12078 26.6566 7.78087C26.3167 7.44096 25.8557 7.25 25.375 7.25Z" fill="#c0c0c0"/>
<path d="M3.625 16.3125H1.8125V3.625C1.8125 3.1443 2.00346 2.68328 2.34337 2.34337C2.68328 2.00346 3.1443 1.8125 3.625 1.8125H16.3125V3.625H3.625V16.3125Z" fill="#c0c0c0"/>
</svg>
